<?xml version="1.0" encoding="UTF-8" standalone="no"?>
<svg width="400" height="400" viewBox="0 0 400 400" fill="none" xmlns="http://www.w3.org/2000/svg">
  <!-- Circular vine border -->
  <path d="M200 20
           C 80 20, 20 120, 20 200
           C 20 280, 80 380, 200 380
           C 320 380, 380 280, 380 200
           C 380 120, 320 20, 200 20 Z" 
        fill="none" 
        stroke="#8ED074" 
        stroke-width="6" 
        stroke-linecap="round"
        stroke-dasharray="2 12"/>
  
  <!-- Vine details and small circles -->
  <path d="M40 200 C 60 160, 80 140, 100 120" stroke="#8ED074" stroke-width="4" stroke-linecap="round" />
  <path d="M60 230 C 80 190, 100 170, 120 150" stroke="#8ED074" stroke-width="4" stroke-linecap="round" />
  <path d="M350 200 C 330 160, 310 140, 290 120" stroke="#8ED074" stroke-width="4" stroke-linecap="round" />
  <path d="M330 230 C 310 190, 290 170, 270 150" stroke="#8ED074" stroke-width="4" stroke-linecap="round" />
  <path d="M200 40 C 160 60, 140 80, 120 100" stroke="#8ED074" stroke-width="4" stroke-linecap="round" />
  <path d="M230 60 C 190 80, 170 100, 150 120" stroke="#8ED074" stroke-width="4" stroke-linecap="round" />
  <path d="M200 360 C 160 340, 140 320, 120 300" stroke="#8ED074" stroke-width="4" stroke-linecap="round" />
  <path d="M230 340 C 190 320, 170 300, 150 280" stroke="#8ED074" stroke-width="4" stroke-linecap="round" />
  
  <!-- Small circles on vines -->
  <circle cx="100" cy="120" r="5" fill="#8ED074" />
  <circle cx="120" cy="150" r="5" fill="#8ED074" />
  <circle cx="290" cy="120" r="5" fill="#8ED074" />
  <circle cx="270" cy="150" r="5" fill="#8ED074" />
  <circle cx="120" cy="100" r="5" fill="#8ED074" />
  <circle cx="150" cy="120" r="5" fill="#8ED074" />
  <circle cx="120" cy="300" r="5" fill="#8ED074" />
  <circle cx="150" cy="280" r="5" fill="#8ED074" />
  
  <!-- ECO Text -->
  <text x="80" y="210" font-family="Arial" font-weight="bold" font-size="42" fill="#333333">ECO</text>
  
  <!-- Dollar Sign (Styled to look hand-drawn) -->
  <g transform="translate(200, 200) scale(1.2) rotate(5)">
    <path d="M-20 -30 
             C-5 -35, 5 -35, 20 -30
             C30 -25, 30 -15, 20 -10
             C10 -5, -10 -5, -20 0
             C-30 5, -30 15, -20 20
             C-5 25, 5 25, 20 20"
          stroke="#8ED074" 
          stroke-width="5" 
          fill="none" 
          stroke-linecap="round"/>
    <path d="M0 -40 L0 30" stroke="#8ED074" stroke-width="5" stroke-linecap="round"/>
  </g>
  
  <!-- PLIT Text -->
  <text x="240" y="210" font-family="Arial" font-weight="bold" font-size="42" fill="#333333">PLIT</text>
</svg>